<mxfile host="Electron" modified="2024-07-06T11:37:10.277Z" agent="Mozilla/5.0 (Windows NT 10.0; Win64; x64) AppleWebKit/537.36 (KHTML, like Gecko) draw.io/24.4.13 Chrome/124.0.6367.207 Electron/30.0.6 Safari/537.36" etag="vduowuudEXPHIn2F0plU" version="24.4.13" type="device">
  <diagram name="Page-1" id="KFz7BgVZpauqYtEyaA-v">
    <mxGraphModel dx="989" dy="577" grid="1" gridSize="10" guides="1" tooltips="1" connect="1" arrows="1" fold="1" page="1" pageScale="1" pageWidth="850" pageHeight="1100" math="0" shadow="0">
      <root>
        <mxCell id="0" />
        <mxCell id="1" parent="0" />
        <mxCell id="O9CBdO7XF0i_dBwOTbdV-1" value="RunStarter" style="rounded=0;whiteSpace=wrap;html=1;fontFamily=&quot;Latin Modern Mono 12&quot;;" parent="1" vertex="1">
          <mxGeometry x="300" y="110" width="100" height="40" as="geometry" />
        </mxCell>
        <mxCell id="O9CBdO7XF0i_dBwOTbdV-2" value="&lt;font face=&quot;&amp;quot;Latin Modern Regular 12&amp;quot;&quot; style=&quot;font-size: 12px;&quot;&gt;Selected by the player&lt;br style=&quot;font-size: 12px;&quot;&gt;or using &lt;/font&gt;&lt;font face=&quot;&amp;quot;Latin Modern Mono 12&amp;quot;&quot; style=&quot;font-size: 12px;&quot;&gt;System.Random&lt;/font&gt;" style="endArrow=classic;html=1;rounded=0;dashed=1;dashPattern=8 8;fontSize=12;" parent="1" edge="1">
          <mxGeometry x="-0.2" width="50" height="50" relative="1" as="geometry">
            <mxPoint x="349.65999999999997" y="150" as="sourcePoint" />
            <mxPoint x="349.65999999999997" y="200" as="targetPoint" />
            <mxPoint as="offset" />
          </mxGeometry>
        </mxCell>
        <mxCell id="O9CBdO7XF0i_dBwOTbdV-3" value="RunPersistence" style="rounded=0;whiteSpace=wrap;html=1;fontFamily=&quot;Latin Modern Mono 12&quot;;" parent="1" vertex="1">
          <mxGeometry x="300" y="200" width="100" height="40" as="geometry" />
        </mxCell>
        <mxCell id="O9CBdO7XF0i_dBwOTbdV-4" value="BlueprintReward-&lt;br&gt;Controller" style="rounded=0;whiteSpace=wrap;html=1;fontFamily=&quot;Latin Modern Mono 12&quot;;" parent="1" vertex="1">
          <mxGeometry x="440" y="280" width="100" height="40" as="geometry" />
        </mxCell>
        <mxCell id="O9CBdO7XF0i_dBwOTbdV-5" value="LevelSetter" style="rounded=0;whiteSpace=wrap;html=1;fontFamily=&quot;Latin Modern Mono 12&quot;;" parent="1" vertex="1">
          <mxGeometry x="500" y="200" width="100" height="40" as="geometry" />
        </mxCell>
        <mxCell id="O9CBdO7XF0i_dBwOTbdV-6" value="For each level" style="endArrow=classic;html=1;rounded=0;fontFamily=&quot;Latin Modern Regular 12&quot;;fontSize=12;" parent="1" edge="1">
          <mxGeometry y="10" width="50" height="50" relative="1" as="geometry">
            <mxPoint x="400" y="209.66" as="sourcePoint" />
            <mxPoint x="500" y="209.66" as="targetPoint" />
            <mxPoint as="offset" />
          </mxGeometry>
        </mxCell>
        <mxCell id="O9CBdO7XF0i_dBwOTbdV-8" value="" style="endArrow=classic;html=1;rounded=0;" parent="1" edge="1">
          <mxGeometry width="50" height="50" relative="1" as="geometry">
            <mxPoint x="400" y="230" as="sourcePoint" />
            <mxPoint x="500" y="230" as="targetPoint" />
          </mxGeometry>
        </mxCell>
        <mxCell id="O9CBdO7XF0i_dBwOTbdV-9" value="" style="endArrow=classic;html=1;rounded=0;entryX=0;entryY=0.5;entryDx=0;entryDy=0;edgeStyle=elbowEdgeStyle;exitX=0.5;exitY=1;exitDx=0;exitDy=0;" parent="1" target="O9CBdO7XF0i_dBwOTbdV-4" edge="1" source="O9CBdO7XF0i_dBwOTbdV-3">
          <mxGeometry width="50" height="50" relative="1" as="geometry">
            <mxPoint x="339.65999999999997" y="240" as="sourcePoint" />
            <mxPoint x="339.65999999999997" y="300" as="targetPoint" />
            <Array as="points">
              <mxPoint x="350" y="260" />
            </Array>
          </mxGeometry>
        </mxCell>
        <mxCell id="O9CBdO7XF0i_dBwOTbdV-10" value="" style="endArrow=classic;html=1;rounded=0;" parent="1" edge="1">
          <mxGeometry width="50" height="50" relative="1" as="geometry">
            <mxPoint x="600" y="210" as="sourcePoint" />
            <mxPoint x="680" y="209.66" as="targetPoint" />
          </mxGeometry>
        </mxCell>
        <mxCell id="O9CBdO7XF0i_dBwOTbdV-15" value="WorldSettings" style="rounded=0;whiteSpace=wrap;html=1;fontFamily=&quot;Latin Modern Mono 12&quot;;" parent="1" vertex="1">
          <mxGeometry x="680" y="190" width="100" height="40" as="geometry" />
        </mxCell>
        <mxCell id="O9CBdO7XF0i_dBwOTbdV-17" value="" style="endArrow=classic;html=1;rounded=0;" parent="1" edge="1">
          <mxGeometry width="50" height="50" relative="1" as="geometry">
            <mxPoint x="780" y="209.66" as="sourcePoint" />
            <mxPoint x="810" y="210" as="targetPoint" />
          </mxGeometry>
        </mxCell>
        <mxCell id="O9CBdO7XF0i_dBwOTbdV-19" value="..." style="text;html=1;align=center;verticalAlign=middle;whiteSpace=wrap;rounded=0;fontFamily=&quot;Latin Modern Mono 12&quot;;fontStyle=1" parent="1" vertex="1">
          <mxGeometry x="810" y="195" width="30" height="30" as="geometry" />
        </mxCell>
        <mxCell id="O9CBdO7XF0i_dBwOTbdV-26" value="" style="endArrow=classic;html=1;rounded=0;edgeStyle=elbowEdgeStyle;" parent="1" edge="1">
          <mxGeometry width="50" height="50" relative="1" as="geometry">
            <mxPoint x="620" y="210" as="sourcePoint" />
            <mxPoint x="680" y="260" as="targetPoint" />
            <Array as="points">
              <mxPoint x="620" y="230" />
            </Array>
          </mxGeometry>
        </mxCell>
        <mxCell id="O9CBdO7XF0i_dBwOTbdV-28" value="WorldSettings" style="rounded=0;whiteSpace=wrap;html=1;fontFamily=&quot;Latin Modern Mono 12&quot;;" parent="1" vertex="1">
          <mxGeometry x="680" y="320" width="100" height="40" as="geometry" />
        </mxCell>
        <mxCell id="O9CBdO7XF0i_dBwOTbdV-30" value="" style="endArrow=classic;html=1;rounded=0;" parent="1" edge="1">
          <mxGeometry width="50" height="50" relative="1" as="geometry">
            <mxPoint x="780" y="339.65999999999997" as="sourcePoint" />
            <mxPoint x="810" y="340" as="targetPoint" />
          </mxGeometry>
        </mxCell>
        <mxCell id="O9CBdO7XF0i_dBwOTbdV-32" value="..." style="text;html=1;align=center;verticalAlign=middle;whiteSpace=wrap;rounded=0;fontFamily=&quot;Latin Modern Mono 12&quot;;fontStyle=1" parent="1" vertex="1">
          <mxGeometry x="810" y="325" width="30" height="30" as="geometry" />
        </mxCell>
        <mxCell id="O9CBdO7XF0i_dBwOTbdV-33" value="" style="endArrow=classic;html=1;rounded=0;edgeStyle=elbowEdgeStyle;entryX=0;entryY=0.5;entryDx=0;entryDy=0;" parent="1" target="O9CBdO7XF0i_dBwOTbdV-28" edge="1">
          <mxGeometry width="50" height="50" relative="1" as="geometry">
            <mxPoint x="600" y="230" as="sourcePoint" />
            <mxPoint x="740" y="310" as="targetPoint" />
            <Array as="points">
              <mxPoint x="610" y="280" />
            </Array>
          </mxGeometry>
        </mxCell>
        <mxCell id="O9CBdO7XF0i_dBwOTbdV-34" value="WaveGenerator" style="rounded=0;whiteSpace=wrap;html=1;fontFamily=&quot;Latin Modern Mono 12&quot;;" parent="1" vertex="1">
          <mxGeometry x="680" y="240" width="100" height="40" as="geometry" />
        </mxCell>
        <mxCell id="O9CBdO7XF0i_dBwOTbdV-35" value="WaveGenerator" style="rounded=0;whiteSpace=wrap;html=1;fontFamily=&quot;Latin Modern Mono 12&quot;;" parent="1" vertex="1">
          <mxGeometry x="680" y="370" width="100" height="40" as="geometry" />
        </mxCell>
        <mxCell id="O9CBdO7XF0i_dBwOTbdV-36" value="" style="endArrow=classic;html=1;rounded=0;edgeStyle=elbowEdgeStyle;" parent="1" edge="1">
          <mxGeometry width="50" height="50" relative="1" as="geometry">
            <mxPoint x="610" y="340" as="sourcePoint" />
            <mxPoint x="680" y="390" as="targetPoint" />
            <Array as="points">
              <mxPoint x="610" y="360" />
            </Array>
          </mxGeometry>
        </mxCell>
        <mxCell id="O9CBdO7XF0i_dBwOTbdV-37" value="..." style="text;html=1;align=center;verticalAlign=middle;whiteSpace=wrap;rounded=0;fontFamily=&quot;Latin Modern Mono 12&quot;;fontStyle=1" parent="1" vertex="1">
          <mxGeometry x="430" y="225" width="40" height="30" as="geometry" />
        </mxCell>
        <mxCell id="O9CBdO7XF0i_dBwOTbdV-38" value="..." style="text;html=1;align=center;verticalAlign=middle;whiteSpace=wrap;rounded=0;fontFamily=&quot;Latin Modern Mono 12&quot;;fontStyle=1" parent="1" vertex="1">
          <mxGeometry x="700" y="410" width="60" height="30" as="geometry" />
        </mxCell>
      </root>
    </mxGraphModel>
  </diagram>
</mxfile>
